<svg id="Layer_1" data-name="Layer 1" xmlns="http://www.w3.org/2000/svg" xmlns:xlink="http://www.w3.org/1999/xlink" viewBox="0 0 307.09 278.13"><defs><style>.cls-1{fill:url(#linear-gradient);}.cls-2{fill:url(#linear-gradient-2);}.cls-3{fill:url(#linear-gradient-3);}.cls-4{fill:url(#linear-gradient-4);}.cls-5{fill:url(#linear-gradient-5);}.cls-6{fill:url(#linear-gradient-6);}.cls-7{fill:url(#linear-gradient-7);}.cls-8{fill:url(#linear-gradient-8);}.cls-9{fill:#2b2b2b;}</style><linearGradient id="linear-gradient" x1="152.67" y1="6.04" x2="152.67" y2="190.88" gradientUnits="userSpaceOnUse"><stop offset="0" stop-color="#03bafc"/><stop offset="1" stop-color="#015df0"/></linearGradient><linearGradient id="linear-gradient-2" x1="153.55" y1="6.04" x2="153.55" y2="190.88" xlink:href="#linear-gradient"/><linearGradient id="linear-gradient-3" x1="3.78" y1="184.96" x2="3.78" y2="266.49" xlink:href="#linear-gradient"/><linearGradient id="linear-gradient-4" x1="29.84" y1="184.96" x2="29.84" y2="266.49" xlink:href="#linear-gradient"/><linearGradient id="linear-gradient-5" x1="57.58" y1="184.96" x2="57.58" y2="266.49" xlink:href="#linear-gradient"/><linearGradient id="linear-gradient-6" x1="83.4" y1="184.96" x2="83.4" y2="266.49" xlink:href="#linear-gradient"/><linearGradient id="linear-gradient-7" x1="111.87" y1="184.96" x2="111.87" y2="266.49" xlink:href="#linear-gradient"/><linearGradient id="linear-gradient-8" x1="137.97" y1="184.96" x2="137.97" y2="266.49" xlink:href="#linear-gradient"/></defs><path class="cls-1" d="M152.67,40.05a20,20,0,1,0-20-20A20.06,20.06,0,0,0,152.67,40.05Zm0-30.69A10.67,10.67,0,1,1,142,20,10.68,10.68,0,0,1,152.67,9.36Z"/><path class="cls-2" d="M154.15,53.48,65.85,92.53,79.7,97.81v15.83l-.62.33a5.5,5.5,0,0,0-.37,9.55l.67.42L76,142.19H87l-3.39-18.11.74-.4a5.52,5.52,0,0,0,2.5-6.88,5.82,5.82,0,0,0-3.08-3.09l-.47-.21V99.17l45.43,17.32v34a15.07,15.07,0,0,0,17.4,14.87,15.32,15.32,0,0,0,12.71-15.29v-33a4.68,4.68,0,0,0-4.68-4.68h0a4.69,4.69,0,0,0-4.68,4.68v33.47a5.7,5.7,0,0,1-6.83,5.58,5.85,5.85,0,0,1-4.56-5.81V108.56A16.07,16.07,0,0,1,156.61,92.7c7.9,1.19,13.56,8.31,13.56,16.3v50.29a27,27,0,0,1-26.24,26.86h-.68a26.75,26.75,0,0,1-21-10.2,27.49,27.49,0,0,1-5.78-17.23V120.08l-9.36-3.43v42a36.91,36.91,0,0,0,7.64,22.89,36.12,36.12,0,0,0,28.56,14h.86a36.45,36.45,0,0,0,35.39-36.22V155.5l29.7-9.45V104l32-11.25Zm45.72,85.72-20.34,6.48V114.43l20.34-7.14Zm-20.62-34.59-.27-1.3a25.49,25.49,0,0,0-30.64-19.5c-10.39,2.4-18,11.34-19.45,21.89l-.12.81L90.44,91.89l63.67-28.16,62,27.94Z"/><path class="cls-3" d="M0,263.07H7.56v-44.8h0A7.56,7.56,0,0,0,0,225.83Z"/><path class="cls-4" d="M39.31,235.9a10.88,10.88,0,0,0-6.78-1.85,10.68,10.68,0,0,0-6,1.68,10.42,10.42,0,0,0-2.94,2.86l0-3.82h-7.2v28.3H23.7V249a9.06,9.06,0,0,1,1.17-4.68,8.41,8.41,0,0,1,2.92-3.05,6.73,6.73,0,0,1,3.43-1c1.94,0,3.18.67,3.78,2s1,3.94,1,7.33v6.14a7.33,7.33,0,0,0,7.33,7.32h0V249.43a36.58,36.58,0,0,0-.79-8.36A9,9,0,0,0,39.31,235.9Z"/><path class="cls-5" d="M60.52,222.05h0a9.4,9.4,0,0,0-7.38,9.18v3.54H48.3v6.12h4.84v22.18h7.38V240.89h6.34v-6.12H60.52Z"/><path class="cls-6" d="M84.24,234.05a15.49,15.49,0,0,0-7.5,1.81,13.1,13.1,0,0,0-5.23,5.23A16.06,16.06,0,0,0,69.64,249a16.87,16.87,0,0,0,1.59,7.33,12.46,12.46,0,0,0,5,5.39,16.41,16.41,0,0,0,8.41,2,24.21,24.21,0,0,0,6.33-.73,15.7,15.7,0,0,0,4.18-1.73l.31-.2-2.3-5.38-.42.23a14.88,14.88,0,0,1-3.31,1.28,19.4,19.4,0,0,1-4.61.46,6.67,6.67,0,0,1-7.49-6H96.94l0-.39a33.17,33.17,0,0,0,.19-3.39c0-4.31-1.08-7.71-3.19-10.12S88.57,234.05,84.24,234.05Zm-.18,6.31a6.46,6.46,0,0,1,4.49,1.41c1,.86,1.44,2.37,1.47,4.47H77.33C78,242.28,80.24,240.36,84.06,240.36Z"/><path class="cls-7" d="M117.77,234.05a8.25,8.25,0,0,0-5.17,1.76,9.53,9.53,0,0,0-2.4,2.77v-3.81h0a7.33,7.33,0,0,0-7.33,7.32v21h7.33V248.53c0-2.48.71-4.29,2.13-5.4a7.78,7.78,0,0,1,4.84-1.7,4.22,4.22,0,0,1,2.09.29l.58.38,1-7.51-.27-.14A6.94,6.94,0,0,0,117.77,234.05Z"/><path class="cls-8" d="M147.45,235.9a10.93,10.93,0,0,0-6.79-1.85,10.7,10.7,0,0,0-6,1.68,10.42,10.42,0,0,0-2.94,2.86l0-3.82h-7.2v28.3h7.32V249a9.16,9.16,0,0,1,1.17-4.68,8.35,8.35,0,0,1,2.93-3.05,6.7,6.7,0,0,1,3.42-1c1.94,0,3.18.67,3.79,2s1,3.94,1,7.33v6.14a7.32,7.32,0,0,0,7.32,7.32h0V249.43a36.58,36.58,0,0,0-.79-8.36A9.09,9.09,0,0,0,147.45,235.9Z"/><path class="cls-9" d="M180.74,238.31a9.74,9.74,0,0,0-1.24-1.26,13,13,0,0,0-3.65-2.13,12.35,12.35,0,0,0-4.64-.87,14.35,14.35,0,0,0-7.39,1.85,12.45,12.45,0,0,0-4.86,5.2,16.77,16.77,0,0,0-1.69,7.73,15.45,15.45,0,0,0,1.94,7.84,13.7,13.7,0,0,0,5.18,5.18,14.23,14.23,0,0,0,7.06,1.82,11.84,11.84,0,0,0,6.26-1.71,11,11,0,0,0,3.08-2.68h0a3.89,3.89,0,0,0,3.89,3.79h3.16v-28.3h-3.47a3.63,3.63,0,0,0-3.63,3.54Zm-1.61,6.18a9.28,9.28,0,0,1,1,4.4v.42a8,8,0,0,1-2.21,5.88h0a7.26,7.26,0,0,1-5.43,2.23,6.84,6.84,0,0,1-5.61-2.32,9.46,9.46,0,0,1-2-6.21,9.28,9.28,0,0,1,2-6.15,6.86,6.86,0,0,1,5.58-2.32,7.24,7.24,0,0,1,3.84,1.07A7.58,7.58,0,0,1,179.13,244.49Z"/><rect class="cls-9" x="196.18" y="218.27" width="7.26" height="44.8"/><path class="cls-9" d="M233.52,238.31a9.74,9.74,0,0,0-1.24-1.26,13,13,0,0,0-3.65-2.13,12.35,12.35,0,0,0-4.64-.87,14.35,14.35,0,0,0-7.39,1.85,12.45,12.45,0,0,0-4.86,5.2,16.9,16.9,0,0,0-1.69,7.73,15.45,15.45,0,0,0,1.94,7.84,13.7,13.7,0,0,0,5.18,5.18,14.23,14.23,0,0,0,7.06,1.82,11.84,11.84,0,0,0,6.26-1.71,11,11,0,0,0,3.08-2.68h0a3.89,3.89,0,0,0,3.89,3.79h3.16v-28.3h-3.47a3.63,3.63,0,0,0-3.63,3.54Zm-1.6,6.18a9.27,9.27,0,0,1,1,4.4v.42a8,8,0,0,1-2.21,5.88h0a7.26,7.26,0,0,1-5.43,2.23,6.84,6.84,0,0,1-5.61-2.32,9.46,9.46,0,0,1-2-6.21,9.28,9.28,0,0,1,2-6.15,6.86,6.86,0,0,1,5.58-2.32,7.24,7.24,0,0,1,3.84,1.07A7.68,7.68,0,0,1,231.92,244.49Z"/><path class="cls-9" d="M260.75,252.53l-.9,2.9-.9-2.91-6-17.75h-8.24l11.53,28.7-6.1,14.66h0a11.24,11.24,0,0,0,10.45-7.1L275,234.77h-8Z"/><path class="cls-9" d="M303.62,234.77a3.63,3.63,0,0,0-3.63,3.54h0a9.74,9.74,0,0,0-1.24-1.26,13,13,0,0,0-3.65-2.13,12.35,12.35,0,0,0-4.64-.87,14.41,14.41,0,0,0-7.4,1.85,12.49,12.49,0,0,0-4.85,5.2,16.77,16.77,0,0,0-1.7,7.73,15.46,15.46,0,0,0,1.95,7.84,13.63,13.63,0,0,0,5.18,5.18,14.2,14.2,0,0,0,7.06,1.82A11.84,11.84,0,0,0,297,262a11,11,0,0,0,3.08-2.68v.24a3.64,3.64,0,0,0,3.64,3.55h3.4v-28.3Zm-4.21,14.12v.42a8,8,0,0,1-2.21,5.88h0a7.27,7.27,0,0,1-5.43,2.23,6.84,6.84,0,0,1-5.61-2.32,9.46,9.46,0,0,1-2-6.21,9.28,9.28,0,0,1,2-6.15,6.86,6.86,0,0,1,5.58-2.32,7.24,7.24,0,0,1,3.84,1.07,7.58,7.58,0,0,1,2.77,3A9.28,9.28,0,0,1,299.41,248.89Z"/></svg>